<svg xmlns="http://www.w3.org/2000/svg" viewBox="0 0 156.37 137.24"><defs><style>.cls-1{fill:#fff;}</style></defs><g id="图层_2" data-name="图层 2"><g id="图层_1-2" data-name="图层 1"><path class="cls-1" d="M156.37,86.87H132.65v-33L108.29,32.25,92.37,46.92v40H79.54V52l7.83-7.22V11.46L64.12,33V86.87H0v-5H59.12v-51L92.37,0V40.12l15.85-14.61,29.43,26.07V81.87h13.72V53.81L126,30.73l3.36-3.7,27,24.57Zm-71.83-5h2.83V51.54l-2.83,2.6Z"/><path class="cls-1" d="M15.39,98.78a6.42,6.42,0,0,0-5.31-2.49c-3.14,0-4.64,1.31-4.64,3,0,1.95,2.3,2.5,5,2.82,4.67.57,9,1.79,9,7.13,0,5-4.42,7.14-9.41,7.14-4.58,0-8.1-1.41-9.76-5.51L3.81,109c1,2.46,3.58,3.55,6.3,3.55s5.15-.93,5.15-3.36c0-2.11-2.2-3-5.18-3.29-4.58-.55-8.8-1.76-8.8-6.79,0-4.6,4.54-6.49,8.67-6.52,3.49,0,7.11,1,8.8,4.44Z"/><path class="cls-1" d="M27.71,97.21h-7.1V93.37H39v3.84h-7.1v18.56H27.71Z"/><path class="cls-1" d="M60.67,115.77h-5l-6.53-7.48H45.06v7.48H40.83V93.34l10.66,0c5.28,0,8.06,3.56,8.06,7.43,0,3.07-1.41,6.17-5.66,7l6.78,7.64ZM45.06,97.31v7.17h6.43a3.59,3.59,0,1,0,0-7.17Z"/><path class="cls-1" d="M77.5,111.55H65.79l-1.92,4.22H59.3l10-22.4H74l10,22.4H79.39ZM71.65,98.08l-4.16,9.53h8.32Z"/><path class="cls-1" d="M106.05,104.29a12.69,12.69,0,0,1-2.08,7.29l2.65,2.62-3,3-2.72-2.69a11.63,11.63,0,0,1-6.37,1.67c-8,0-11.49-5.8-11.52-11.62s3.65-11.71,11.52-11.71S106,98.53,106.05,104.29Zm-18.85.35c.06,3.68,2.49,7.61,7.36,7.61,5,0,7.49-4.25,7.33-8.09-.16-3.62-2-7.52-7.33-7.52S87.13,100.86,87.2,104.64Z"/><path class="cls-1" d="M112.8,97.21h-7.1V93.37h18.43v3.84H117v18.56H112.8Z"/><path class="cls-1" d="M141.79,111.55H130.08l-1.92,4.22h-4.58l10-22.4h4.61l10,22.4h-4.61Zm-5.85-13.47-4.16,9.53h8.31Z"/><path class="cls-1" d="M2.65,127.28H1.27v1.45H.34v-4.91H2.65A1.73,1.73,0,1,1,2.65,127.28Zm-1.38-.84H2.65a.87.87,0,1,0,0-1.74H1.27Z"/><path class="cls-1" d="M12.92,128.73h-1.1l-1.42-1.64H9.51v1.64H8.58v-4.91h2.33a1.63,1.63,0,0,1,1.77,1.63A1.46,1.46,0,0,1,11.44,127l1.48,1.67Zm-3.41-4v1.56h1.4a.78.78,0,1,0,0-1.56Z"/><path class="cls-1" d="M21.62,126.3a2.41,2.41,0,0,1-2.52,2.54,2.39,2.39,0,0,1-2.52-2.53,2.52,2.52,0,1,1,5,0Zm-4.13,0a1.61,1.61,0,1,0,3.22,0,1.62,1.62,0,1,0-3.22,0Z"/><path class="cls-1" d="M28.11,127.28H26.72v1.45h-.93v-4.91h2.32A1.73,1.73,0,1,1,28.11,127.28Zm-1.39-.84h1.39a.87.87,0,1,0,0-1.74H26.72Z"/><path class="cls-1" d="M37.68,128.73H34v-4.91h3.67v.9H34.93v1.13h2.65v.86H34.93v1.11h2.75Z"/><path class="cls-1" d="M46.24,128.73h-1.1l-1.42-1.64h-.89v1.64H41.9v-4.91h2.33A1.63,1.63,0,0,1,46,125.45,1.46,1.46,0,0,1,44.76,127l1.48,1.67Zm-3.41-4v1.56h1.4a.78.78,0,1,0,0-1.56Z"/><path class="cls-1" d="M51.6,124.67H50.05v-.85h4v.85H52.53v4.06H51.6Z"/><path class="cls-1" d="M60.5,125.85l1.3-2h1.12v.05l-2,2.83v2H60v-2l-1.88-2.83v-.05h1.09Z"/><path class="cls-1" d="M4.62,133.58,3,135.71H2.84l-1.57-2.14v3.56H.35v-4.9H1.41L3,134.34l1.53-2.11H5.54v4.9H4.62Z"/><path class="cls-1" d="M11.29,136.2H8.72l-.42.93h-1l2.2-4.91h1l2.2,4.91h-1ZM10,133.25l-.91,2.09h1.82Z"/><path class="cls-1" d="M17.75,132.22h.92v4.91H18.1l-2.58-3.31v3.31h-.93v-4.91h.75l2.41,3Z"/><path class="cls-1" d="M24.4,136.2H21.83l-.42.93h-1l2.2-4.91h1l2.2,4.91h-1Zm-1.28-2.95-.92,2.09H24Z"/><path class="cls-1" d="M31.05,133.42a1.9,1.9,0,0,0-1.24-.49,1.68,1.68,0,0,0-1.69,1.81,1.56,1.56,0,0,0,1.69,1.64,1.65,1.65,0,0,0,1.1-.39v-.87H29.66v-.83h2.1v2.07a2.44,2.44,0,0,1-2,.88,2.36,2.36,0,0,1-2.59-2.5,2.5,2.5,0,0,1,2.59-2.66,2.63,2.63,0,0,1,1.82.75Z"/><path class="cls-1" d="M37.57,137.13H33.9v-4.91h3.67v.9H34.82v1.13h2.65v.86H34.82v1.11h2.75Z"/><path class="cls-1" d="M44,133.58l-1.6,2.13h-.18l-1.57-2.14v3.56h-.92v-4.9h1.06l1.54,2.11,1.53-2.11h1.06v4.9H44Z"/><path class="cls-1" d="M50.8,137.13H47.13v-4.91H50.8v.9H48.05v1.13H50.7v.86H48.05v1.11H50.8Z"/><path class="cls-1" d="M56.28,132.22h.93v4.91h-.58l-2.58-3.31v3.31h-.92v-4.91h.75l2.4,3Z"/><path class="cls-1" d="M60.72,133.07H59.16v-.85h4v.85H61.64v4.06h-.92Z"/></g></g></svg>